<svg xmlns="http://www.w3.org/2000/svg" xmlns:xlink="http://www.w3.org/1999/xlink" viewBox="0 0 960 540"><defs><style>.cls-1{fill:none;}.cls-2{isolation:isolate;}.cls-10,.cls-3{fill:#594858;}.cls-4{clip-path:url(#clip-path);}.cls-18,.cls-19,.cls-22,.cls-27,.cls-28,.cls-31,.cls-32,.cls-36,.cls-37,.cls-38,.cls-39,.cls-40,.cls-41,.cls-5,.cls-6,.cls-7,.cls-8{opacity:0.2;}.cls-5{fill:url(#linear-gradient);}.cls-6{fill:url(#linear-gradient-2);}.cls-7{fill:url(#linear-gradient-3);}.cls-8{fill:url(#linear-gradient-4);}.cls-9{fill:url(#linear-gradient-5);}.cls-10,.cls-11,.cls-12,.cls-14,.cls-16,.cls-21,.cls-24,.cls-25,.cls-30,.cls-34,.cls-43,.cls-45,.cls-47{mix-blend-mode:darken;}.cls-11,.cls-16,.cls-43,.cls-45,.cls-47{opacity:0.4;}.cls-11{fill:url(#linear-gradient-6);}.cls-13,.cls-14{fill:#322838;}.cls-15{fill:url(#linear-gradient-7);}.cls-16{fill:url(#linear-gradient-8);}.cls-17{clip-path:url(#clip-path-2);}.cls-18{fill:url(#linear-gradient-9);}.cls-19{fill:url(#linear-gradient-10);}.cls-20{fill:url(#linear-gradient-11);}.cls-21,.cls-25,.cls-30,.cls-34{opacity:0.5;}.cls-21{fill:url(#linear-gradient-12);}.cls-22{fill:url(#linear-gradient-13);}.cls-23{fill:url(#linear-gradient-14);}.cls-24{fill:#4a4151;}.cls-25{fill:url(#linear-gradient-15);}.cls-26{clip-path:url(#clip-path-3);}.cls-27{fill:url(#linear-gradient-16);}.cls-28{fill:url(#linear-gradient-17);}.cls-29{fill:url(#linear-gradient-18);}.cls-30{fill:url(#linear-gradient-19);}.cls-31{fill:url(#linear-gradient-20);}.cls-32{fill:url(#linear-gradient-21);}.cls-33{fill:url(#linear-gradient-22);}.cls-34{fill:url(#linear-gradient-23);}.cls-35{clip-path:url(#clip-path-4);}.cls-36{fill:url(#linear-gradient-24);}.cls-37{fill:url(#linear-gradient-25);}.cls-38{fill:url(#linear-gradient-26);}.cls-39{fill:url(#linear-gradient-27);}.cls-40{fill:url(#linear-gradient-28);}.cls-41{fill:url(#linear-gradient-29);}.cls-42{fill:url(#linear-gradient-30);}.cls-43{fill:url(#linear-gradient-31);}.cls-44{fill:url(#linear-gradient-32);}.cls-45{fill:url(#linear-gradient-33);}.cls-46{fill:url(#linear-gradient-34);}.cls-47{fill:url(#linear-gradient-35);}.cls-48{fill:#695a6a;}</style><clipPath id="clip-path"><rect class="cls-1" x="-43.33" y="450" width="170" height="84" transform="translate(-450.33 533.67) rotate(-90)"/></clipPath><linearGradient id="linear-gradient" x1="748.39" y1="631.87" x2="763.55" y2="631.87" gradientTransform="matrix(0, -1, -1, 0, 661.54, 1242.38)" gradientUnits="userSpaceOnUse"><stop offset="0" stop-color="#97868a" stop-opacity="0"/><stop offset="1" stop-color="#97868a"/></linearGradient><linearGradient id="linear-gradient-2" x1="752.68" y1="653.21" x2="770.32" y2="653.21" xlink:href="#linear-gradient"/><linearGradient id="linear-gradient-3" x1="739.6" y1="649.79" x2="752.32" y2="649.79" xlink:href="#linear-gradient"/><linearGradient id="linear-gradient-4" x1="854.39" y1="221.07" x2="854.39" y2="238.52" gradientTransform="translate(-221.25 1312.46) rotate(-90)" gradientUnits="userSpaceOnUse"><stop offset="0" stop-color="#97868a"/><stop offset="1" stop-color="#97868a" stop-opacity="0"/></linearGradient><linearGradient id="linear-gradient-5" x1="-1.67" y1="331.23" x2="-1.67" y2="380.19" gradientTransform="translate(-332.94 472.45) rotate(-90)" gradientUnits="userSpaceOnUse"><stop offset="0" stop-color="#695a6a"/><stop offset="1" stop-color="#695a6a" stop-opacity="0"/></linearGradient><linearGradient id="linear-gradient-6" x1="0.33" y1="380.19" x2="0.33" y2="331.23" gradientTransform="translate(-332.94 472.45) rotate(-90)" gradientUnits="userSpaceOnUse"><stop offset="0" stop-color="#322838" stop-opacity="0.5"/><stop offset="1" stop-color="#322838"/></linearGradient><linearGradient id="linear-gradient-7" x1="2285.45" y1="1070.38" x2="2285.45" y2="1111.48" gradientTransform="translate(2336.89 1649.94) rotate(180)" xlink:href="#linear-gradient-5"/><linearGradient id="linear-gradient-8" x1="2285.45" y1="1113.48" x2="2285.45" y2="1072.38" gradientTransform="translate(2336.89 1649.94) rotate(180)" xlink:href="#linear-gradient-6"/><clipPath id="clip-path-2"><rect class="cls-1" x="874.76" y="11" width="97" height="73" transform="translate(970.76 -875.76) rotate(90)"/></clipPath><linearGradient id="linear-gradient-9" x1="1167.12" y1="-295.57" x2="1174.96" y2="-295.57" xlink:href="#linear-gradient"/><linearGradient id="linear-gradient-10" x1="1167.18" y1="-284.18" x2="1170.24" y2="-284.18" xlink:href="#linear-gradient"/><linearGradient id="linear-gradient-11" x1="3626.34" y1="771.62" x2="3626.34" y2="806.02" gradientTransform="matrix(0, -1, -1, 0, 1732.94, 3702.89)" xlink:href="#linear-gradient-5"/><linearGradient id="linear-gradient-12" x1="3628.34" y1="806.02" x2="3628.34" y2="771.62" gradientTransform="matrix(0, -1, -1, 0, 1732.94, 3702.89)" xlink:href="#linear-gradient-6"/><linearGradient id="linear-gradient-13" x1="1232.42" y1="-247.9" x2="1241.94" y2="-247.9" xlink:href="#linear-gradient"/><linearGradient id="linear-gradient-14" x1="659.06" y1="-34.98" x2="659.06" y2="-5.83" gradientTransform="matrix(-1, 0, 0, 1, 1565.51, 35.51)" xlink:href="#linear-gradient-5"/><linearGradient id="linear-gradient-15" x1="659.06" y1="-7.83" x2="659.06" y2="-36.98" gradientTransform="matrix(-1, 0, 0, 1, 1565.51, 35.51)" gradientUnits="userSpaceOnUse"><stop offset="0" stop-color="#322838" stop-opacity="0"/><stop offset="0.14" stop-color="#322838" stop-opacity="0.24"/><stop offset="0.46" stop-color="#322838" stop-opacity="0.66"/><stop offset="0.75" stop-color="#322838" stop-opacity="0.91"/><stop offset="1" stop-color="#322838"/></linearGradient><clipPath id="clip-path-3"><rect class="cls-1" x="-0.33" y="-0.63" width="61" height="98"/></clipPath><linearGradient id="linear-gradient-16" x1="1157.51" y1="646.28" x2="1168.96" y2="646.28" xlink:href="#linear-gradient"/><linearGradient id="linear-gradient-17" x1="1155.39" y1="656.86" x2="1176.69" y2="656.86" xlink:href="#linear-gradient"/><linearGradient id="linear-gradient-18" x1="1979.57" y1="304.05" x2="1979.57" y2="338" gradientTransform="translate(-304.94 2052.89) rotate(-90)" xlink:href="#linear-gradient-5"/><linearGradient id="linear-gradient-19" x1="1981.57" y1="338" x2="1981.57" y2="304.05" gradientTransform="translate(-304.94 2052.89) rotate(-90)" xlink:href="#linear-gradient-6"/><linearGradient id="linear-gradient-20" x1="1416.01" y1="-447.08" x2="1428.85" y2="-447.08" gradientTransform="translate(1466.35 -443.46) rotate(180)" xlink:href="#linear-gradient"/><linearGradient id="linear-gradient-21" x1="1220.37" y1="627.11" x2="1229.94" y2="627.11" xlink:href="#linear-gradient"/><linearGradient id="linear-gradient-22" x1="3754.01" y1="1239.75" x2="3754.01" y2="1273.47" gradientTransform="matrix(-1, 0, 0, 1, 3796.85, -1241.6)" xlink:href="#linear-gradient-5"/><linearGradient id="linear-gradient-23" x1="3754.01" y1="1271.47" x2="3754.01" y2="1237.75" gradientTransform="matrix(-1, 0, 0, 1, 3796.85, -1241.6)" xlink:href="#linear-gradient-15"/><clipPath id="clip-path-4"><path class="cls-1" d="M960,576V407H880V576h80Z"/></clipPath><linearGradient id="linear-gradient-24" x1="801.62" y1="193.87" x2="822.32" y2="193.87" gradientTransform="translate(755.8 1242.38) rotate(-90)" xlink:href="#linear-gradient"/><linearGradient id="linear-gradient-25" x1="718.27" y1="198.95" x2="738.32" y2="198.95" gradientTransform="translate(755.8 1242.38) rotate(-90)" xlink:href="#linear-gradient"/><linearGradient id="linear-gradient-26" x1="725.62" y1="187.62" x2="732.94" y2="187.62" gradientTransform="translate(755.8 1242.38) rotate(-90)" xlink:href="#linear-gradient"/><linearGradient id="linear-gradient-27" x1="744.38" y1="173.48" x2="753.32" y2="173.48" gradientTransform="translate(755.8 1242.38) rotate(-90)" xlink:href="#linear-gradient"/><linearGradient id="linear-gradient-28" x1="805.83" y1="175.75" x2="812.74" y2="175.75" gradientTransform="translate(755.8 1242.38) rotate(-90)" xlink:href="#linear-gradient"/><linearGradient id="linear-gradient-29" x1="711.78" y1="199.21" x2="739.32" y2="199.21" gradientTransform="translate(755.8 1242.38) rotate(-90)" xlink:href="#linear-gradient"/><linearGradient id="linear-gradient-30" x1="125.39" y1="593.02" x2="125.39" y2="632.19" gradientTransform="translate(1553.94 310.55) rotate(90)" xlink:href="#linear-gradient-5"/><linearGradient id="linear-gradient-31" x1="123.39" y1="632.19" x2="123.39" y2="593.02" gradientTransform="translate(1553.94 310.55) rotate(90)" xlink:href="#linear-gradient-6"/><linearGradient id="linear-gradient-32" x1="3062.73" y1="592.59" x2="3062.73" y2="637.61" gradientTransform="matrix(0, -1, -1, 0, 1553.94, 3572.89)" xlink:href="#linear-gradient-5"/><linearGradient id="linear-gradient-33" x1="3064.73" y1="637.61" x2="3064.73" y2="592.59" gradientTransform="matrix(0, -1, -1, 0, 1553.94, 3572.89)" xlink:href="#linear-gradient-6"/><linearGradient id="linear-gradient-34" x1="3422.34" y1="1055.38" x2="3422.34" y2="1099.57" gradientTransform="matrix(1, 0, 0, -1, -2521.25, 1634.58)" xlink:href="#linear-gradient-5"/><linearGradient id="linear-gradient-35" x1="3422.34" y1="1101.57" x2="3422.34" y2="1057.38" gradientTransform="matrix(1, 0, 0, -1, -2521.25, 1634.58)" xlink:href="#linear-gradient-6"/></defs><title>Game 1.8 export</title><g class="cls-2"><g id="Background"><g id="bg"><rect class="cls-3" width="960" height="540"/></g><g id="bottom_left" data-name="bottom left"><g class="cls-4"><polygon class="cls-3" points="11.83 486.83 17.4 494 47.52 492.79 28.21 481.06 21.66 478.83 11.83 486.83"/><polygon class="cls-5" points="11.83 486.83 17.4 494 47.52 492.79 28.21 481.06 21.66 478.83 11.83 486.83"/><polygon class="cls-3" points="-5 479.82 -2.6 485 4.51 489.7 13.86 488.22 21.68 477.24 8.21 472.06 -2 474.65 -5 479.82"/><polygon class="cls-6" points="-5 479.82 -2.6 485 4.51 489.7 13.86 488.22 21.68 477.24 8.21 472.06 -2 474.65 -5 479.82"/><polygon class="cls-3" points="-2 497.82 -0.9 502.78 25.51 502 17.4 494 11.21 490.06 1 492.65 -2 497.82"/><polygon class="cls-7" points="-2 497.82 -0.9 502.78 25.51 502 17.4 494 11.21 490.06 1 492.65 -2 497.82"/><polygon class="cls-3" points="17.27 475.65 1.32 473.55 -0.18 470.32 -0.18 449.85 0.57 452.69 16.77 440.49 17.27 475.65"/><polygon class="cls-8" points="17.27 475.65 1.32 473.55 -0.18 470.32 -0.18 449.85 0.57 452.69 16.77 440.49 17.27 475.65"/><path class="cls-9" d="M1,500.43a14.21,14.21,0,0,1,5-5.68L7,494.2a6.4,6.4,0,0,1,6.61.46l8.78,6.87A13.56,13.56,0,0,0,29.51,504h5.05c2.2,0,2.25-.41.11-0.92l-5.16-1.22a18.29,18.29,0,0,1-6.85-3.61l-5.86-5.34c-1.63-1.48-1.75-3.4-.27-4.25a16.68,16.68,0,0,0,4.4-4c0.94-1.33,3.25-1.47,5.12-.32l1.69,1a73.68,73.68,0,0,0,7.06,3.72l9.05,4c2,0.9,2.14.65,0.29-.53l-8.64-5.55a17.15,17.15,0,0,1-4.88-4.87c-0.83-1.49-.72-3,0.26-3.44A7.34,7.34,0,0,0,34,474.93a3.36,3.36,0,0,1,4-2.26c1.58,0.46,4.2-.38,5.81-1.87l2.44-2.25c1.62-1.49,1.39-1.8-.5-0.68l-1.44.85a10.14,10.14,0,0,1-7.25.8l-0.07,0a4.09,4.09,0,0,0-5.11,2.33A7.42,7.42,0,0,1,26.55,476l-0.44.07a11.63,11.63,0,0,1-6.4-.73,26.54,26.54,0,0,0-6.37-2.17L7.47,472c-2.16-.43-4.36-2-4.9-3.55A18.62,18.62,0,0,1,2,461.76l0.24-2.29a12.54,12.54,0,0,1,3.33-6.72l7.58-7.15c1.6-1.51,1.37-1.82-.52-0.68L4.51,449.8c-1.89,1.13-4,.82-4.61-0.7s-1.17-1-1.16,1.24l0.13,28.28c0,2.2.86,2.41,1.89,0.46l0.44-.84c1-1.95,2.86-3.54,4.07-3.54a34.85,34.85,0,0,1,6.1.91l1,0.24c2.14,0.5,4.45,1.84,5.12,3a5,5,0,0,1,.24,4.14c-0.54,1.14-2.61,2.83-4.6,3.77l-6,2.81a7.16,7.16,0,0,1-6.37-.2c-1.51-1-2.64-.1-2.51,2.09l0.57,9.35c0.13,2.2,1,2.34,1.83.32Z"/><path class="cls-10" d="M1,498.43a14.21,14.21,0,0,1,5-5.68L7,492.2a6.4,6.4,0,0,1,6.61.46l8.78,6.87A13.56,13.56,0,0,0,29.51,502h5.05c2.2,0,2.25-.41.11-0.92l-5.16-1.22a18.29,18.29,0,0,1-6.85-3.61l-5.86-5.34c-1.63-1.48-1.75-3.4-.27-4.25a16.68,16.68,0,0,0,4.4-4c0.94-1.33,3.25-1.47,5.12-.32l1.69,1a73.68,73.68,0,0,0,7.06,3.72l9.05,4c2,0.9,2.14.65,0.29-.53l-8.64-5.55a17.15,17.15,0,0,1-4.88-4.87c-0.83-1.49-.72-3,0.26-3.44A7.34,7.34,0,0,0,34,472.93a3.36,3.36,0,0,1,4-2.26c1.58,0.46,4.2-.38,5.81-1.87l2.44-2.25c1.62-1.49,1.39-1.8-.5-0.68l-1.44.85a10.14,10.14,0,0,1-7.25.8l-0.07,0a4.09,4.09,0,0,0-5.11,2.33A7.42,7.42,0,0,1,26.55,474l-0.44.07a11.63,11.63,0,0,1-6.4-.73,26.54,26.54,0,0,0-6.37-2.17L7.47,470c-2.16-.43-4.36-2-4.9-3.55A18.62,18.62,0,0,1,2,459.76l0.24-2.29a12.54,12.54,0,0,1,3.33-6.72l7.58-7.15c1.6-1.51,1.37-1.82-.52-0.68L4.51,447.8c-1.89,1.13-4,.82-4.61-0.7s-1.17-1-1.16,1.24l0.13,28.28c0,2.2.86,2.41,1.89,0.46l0.44-.84c1-1.95,2.86-3.54,4.07-3.54a34.85,34.85,0,0,1,6.1.91l1,0.24c2.14,0.5,4.45,1.84,5.12,3a5,5,0,0,1,.24,4.14c-0.54,1.14-2.61,2.83-4.6,3.77l-6,2.81a7.16,7.16,0,0,1-6.37-.2c-1.51-1-2.64-.1-2.51,2.09l0.57,9.35c0.13,2.2,1,2.34,1.83.32Z"/><path class="cls-11" d="M1,498.43a14.21,14.21,0,0,1,5-5.68L7,492.2a6.4,6.4,0,0,1,6.61.46l8.78,6.87A13.56,13.56,0,0,0,29.51,502h5.05c2.2,0,2.25-.41.11-0.92l-5.16-1.22a18.29,18.29,0,0,1-6.85-3.61l-5.86-5.34c-1.63-1.48-1.75-3.4-.27-4.25a16.68,16.68,0,0,0,4.4-4c0.94-1.33,3.25-1.47,5.12-.32l1.69,1a73.68,73.68,0,0,0,7.06,3.72l9.05,4c2,0.9,2.14.65,0.29-.53l-8.64-5.55a17.15,17.15,0,0,1-4.88-4.87c-0.83-1.49-.72-3,0.26-3.44A7.34,7.34,0,0,0,34,472.93a3.36,3.36,0,0,1,4-2.26c1.58,0.46,4.2-.38,5.81-1.87l2.44-2.25c1.62-1.49,1.39-1.8-.5-0.68l-1.44.85a10.14,10.14,0,0,1-7.25.8l-0.07,0a4.09,4.09,0,0,0-5.11,2.33A7.42,7.42,0,0,1,26.55,474l-0.44.07a11.63,11.63,0,0,1-6.4-.73,26.54,26.54,0,0,0-6.37-2.17L7.47,470c-2.16-.43-4.36-2-4.9-3.55A18.62,18.62,0,0,1,2,459.76l0.24-2.29a12.54,12.54,0,0,1,3.33-6.72l7.58-7.15c1.6-1.51,1.37-1.82-.52-0.68L4.51,447.8c-1.89,1.13-4,.82-4.61-0.7s-1.17-1-1.16,1.24l0.13,28.28c0,2.2.86,2.41,1.89,0.46l0.44-.84c1-1.95,2.86-3.54,4.07-3.54a34.85,34.85,0,0,1,6.1.91l1,0.24c2.14,0.5,4.45,1.84,5.12,3a5,5,0,0,1,.24,4.14c-0.54,1.14-2.61,2.83-4.6,3.77l-6,2.81a7.16,7.16,0,0,1-6.37-.2c-1.51-1-2.64-.1-2.51,2.09l0.57,9.35c0.13,2.2,1,2.34,1.83.32Z"/><g class="cls-12"><path class="cls-13" d="M0.29,489.36a8.32,8.32,0,0,0,3.77.83,9.51,9.51,0,0,0,4-.84L14,486.57a3.91,3.91,0,0,0-.42,1.39,4.64,4.64,0,0,0,.52,2.6,8.48,8.48,0,0,0-4.19-1.07,7.75,7.75,0,0,0-3.89,1L5,491a16,16,0,0,0-4.39,4.11Zm29.21-7.24-0.7-.42-1.69-1a7.18,7.18,0,0,0-3.69-1.07,5.13,5.13,0,0,0-3.52,1.27,7.12,7.12,0,0,0-.67-5,4.66,4.66,0,0,0-.5-0.69h0a11.89,11.89,0,0,0,5.47,1.13,13.72,13.72,0,0,0,2.24-.17l0.44-.07a9.12,9.12,0,0,0,4.18-2,3.62,3.62,0,0,1-.93.89,3.25,3.25,0,0,0-1.82,2,5.32,5.32,0,0,0,.59,4.28A9.24,9.24,0,0,0,29.5,482.12ZM0.83,467.51a8,8,0,0,0,3.32,3.37,7.72,7.72,0,0,0-3.29,2.36ZM0.75,450.26a5,5,0,0,0,1.49.22,5.77,5.77,0,0,0,1-.08A15.86,15.86,0,0,0,.77,455Z"/></g><path class="cls-13" d="M-1.51,450.18c0.29-1.06.79-1.37,1.11-.69S1,450.33,2,449.86l4.77-2.3c1-.48,1.17-0.23.4,0.56l-9.84,10c-0.77.78-1.16,0.56-.87-0.5Z"/><path class="cls-14" d="M-1.53,462.37c0.11-1.09.41-1.12,0.67,0l1.06,4.4a6,6,0,0,0,2.12,3.08l2.58,1.77c0.91,0.62.89,1.22,0,1.32A4.9,4.9,0,0,0,2,474.68l-2.11,2.85c-0.65.88-1.29,0.71-1.41-.38l-0.55-4.84a22.57,22.57,0,0,1,0-4Z"/><path class="cls-14" d="M-2.33,489.66a1.3,1.3,0,0,1,1.88-1.31l2.25,0.83a8.22,8.22,0,0,0,3.83.28l4.86-1c1.08-.23,1.15,0,0.15.45l-6.26,3a8.24,8.24,0,0,0-2.88,2.55l-2.76,4.35c-0.59.93-1.07,0.79-1.07-.31v-8.82Z"/><path class="cls-15" d="M62.78,574.44a63.92,63.92,0,0,1-6.8-4.18l-2.63-1.91a8.07,8.07,0,0,1-3-6.34s0.36-5.36.36-5.85c0-.14,3.58-3.64,3.58-3.64a5.47,5.47,0,0,0,.88-6.27l-3.75-6.42c-1.06-1.93-1.32-1.81-.59.26l1.67,4.75c0.73,2.08.36,4.66-.83,5.75a13,13,0,0,1-6.13,2.47l-3.83.47a9.76,9.76,0,0,1-6.89-2.24L34,550.53c-1.61-1.5-2.11-1.12-1.11.84l1.26,2.49a6.1,6.1,0,0,0,5.78,3.06l4-.52c2.18-.28,3.41,1.2,2.73,3.3l-4.16,12.77a8.77,8.77,0,0,1-5.05,5l-2.78.88c-2.1.66-2,1.21,0.19,1.21H48c2.2,0,2.54-1.05.76-2.34L48.35,577c-1.78-1.29-2.3-3.43-1.15-4.77s3.53-1.35,5.29,0l3.38,2.54c1.76,1.32,2.73,3,2.16,3.63s0.77,1.22,3,1.22h7.72c2.2,0,2.4-.82.44-1.83Z"/><path class="cls-10" d="M62.78,572.44a63.92,63.92,0,0,1-6.8-4.18l-2.63-1.91a8.07,8.07,0,0,1-3-6.34s0.36-5.36.36-5.85c0-.14,3.58-3.64,3.58-3.64a5.47,5.47,0,0,0,.88-6.27l-3.75-6.42c-1.06-1.93-1.32-1.81-.59.26l1.67,4.75c0.73,2.08.36,4.66-.83,5.75a13,13,0,0,1-6.13,2.47l-3.83.47a9.76,9.76,0,0,1-6.89-2.24L34,548.53c-1.61-1.5-2.11-1.12-1.11.84l1.26,2.49a6.1,6.1,0,0,0,5.78,3.06l4-.52c2.18-.28,3.41,1.2,2.73,3.3l-4.16,12.77a8.77,8.77,0,0,1-5.05,5l-2.78.88c-2.1.66-2,1.21,0.19,1.21H48c2.2,0,2.54-1.05.76-2.34L48.35,575c-1.78-1.29-2.3-3.43-1.15-4.77s3.53-1.35,5.29,0l3.38,2.54c1.76,1.32,2.73,3,2.16,3.63s0.77,1.22,3,1.22h7.72c2.2,0,2.4-.82.44-1.83Z"/><path class="cls-16" d="M62.78,572.44a63.92,63.92,0,0,1-6.8-4.18l-2.63-1.91a8.07,8.07,0,0,1-3-6.34s0.36-5.36.36-5.85c0-.14,3.58-3.64,3.58-3.64a5.47,5.47,0,0,0,.88-6.27l-3.75-6.42c-1.06-1.93-1.32-1.81-.59.26l1.67,4.75c0.73,2.08.36,4.66-.83,5.75a13,13,0,0,1-6.13,2.47l-3.83.47a9.76,9.76,0,0,1-6.89-2.24L34,548.53c-1.61-1.5-2.11-1.12-1.11.84l1.26,2.49a6.1,6.1,0,0,0,5.78,3.06l4-.52c2.18-.28,3.41,1.2,2.73,3.3l-4.16,12.77a8.77,8.77,0,0,1-5.05,5l-2.78.88c-2.1.66-2,1.21,0.19,1.21H48c2.2,0,2.54-1.05.76-2.34L48.35,575c-1.78-1.29-2.3-3.43-1.15-4.77s3.53-1.35,5.29,0l3.38,2.54c1.76,1.32,2.73,3,2.16,3.63s0.77,1.22,3,1.22h7.72c2.2,0,2.4-.82.44-1.83Z"/></g></g><g id="top_right" data-name="top right"><g class="cls-17"><polygon class="cls-3" points="951.58 71.88 960.76 82.13 962.64 73.47 957.76 65.63 951.58 71.88"/><polygon class="cls-18" points="951.58 71.88 960.76 82.13 962.64 73.47 957.76 65.63 951.58 71.88"/><polygon class="cls-3" points="937.34 77.38 954.12 77.88 948.78 71.44 937.34 77.38"/><polygon class="cls-19" points="937.34 77.38 954.12 77.88 948.78 71.44 937.34 77.38"/><path class="cls-20" d="M956.89,86.25A40.52,40.52,0,0,0,953,79.31l-1.91-2.63a4.7,4.7,0,0,0-5.86-1.33s-7.43,4-7.92,4-1.72-2.15-1.72-2.15a5,5,0,0,0-5.75-2.13l-1.22.43c-2.07.74-2.32,0.27-.56-1l2.45-1.82a4.29,4.29,0,0,1,5.59.21,4.43,4.43,0,0,0,5.65.3l4.21-3c1.8-1.26,4.86-3.16,6.79-4.21l2.73-1.48a11.32,11.32,0,0,0,4.66-5.11c0.63-1.76,1.15-1.4,1.15.8V71.3c0,2.2-.89,2.46-2,0.57s-3.07-2.49-4.4-1.33-1.35,3.54,0,5.29l2.54,3.38c1.32,1.76,2.73,3,3.13,2.66s0.72,1.27.72,3.47v7.72c0,2.2-.68,2.33-1.52.3Z"/><path class="cls-10" d="M956.89,84.25A40.52,40.52,0,0,0,953,77.31l-1.91-2.63a4.7,4.7,0,0,0-5.86-1.33s-7.43,4-7.92,4-1.72-2.15-1.72-2.15a5,5,0,0,0-5.75-2.13l-1.22.43c-2.07.74-2.32,0.27-.56-1l2.45-1.82a4.29,4.29,0,0,1,5.59.21,4.43,4.43,0,0,0,5.65.3l4.21-3c1.8-1.26,4.86-3.16,6.79-4.21l2.73-1.48a11.32,11.32,0,0,0,4.66-5.11c0.63-1.76,1.15-1.4,1.15.8V69.3c0,2.2-.89,2.46-2,0.57s-3.07-2.49-4.4-1.33-1.35,3.54,0,5.29l2.54,3.38c1.32,1.76,2.73,3,3.13,2.66s0.72,1.27.72,3.47v7.72c0,2.2-.68,2.33-1.52.3Z"/><path class="cls-21" d="M956.89,84.25A40.52,40.52,0,0,0,953,77.31l-1.91-2.63a4.7,4.7,0,0,0-5.86-1.33s-7.43,4-7.92,4-1.72-2.15-1.72-2.15a5,5,0,0,0-5.75-2.13l-1.22.43c-2.07.74-2.32,0.27-.56-1l2.45-1.82a4.29,4.29,0,0,1,5.59.21,4.43,4.43,0,0,0,5.65.3l4.21-3c1.8-1.26,4.86-3.16,6.79-4.21l2.73-1.48a11.32,11.32,0,0,0,4.66-5.11c0.63-1.76,1.15-1.4,1.15.8V69.3c0,2.2-.89,2.46-2,0.57s-3.07-2.49-4.4-1.33-1.35,3.54,0,5.29l2.54,3.38c1.32,1.76,2.73,3,3.13,2.66s0.72,1.27.72,3.47v7.72c0,2.2-.68,2.33-1.52.3Z"/><g class="cls-12"><path class="cls-13" d="M958.74,83.5a38.21,38.21,0,0,0-2-4,8.34,8.34,0,0,0,2.46,2.07,15.2,15.2,0,0,1,.09,1.73v1.58ZM937.82,75c-0.17-.25-0.34-0.53-0.47-0.76s-0.21-.34-0.32-0.5a6.4,6.4,0,0,0,2,.31,6.84,6.84,0,0,0,.74,0Zm14.4-2.11a6.7,6.7,0,0,0-4.87-2,6.52,6.52,0,0,0-2.07.33l1.86-1.3c1.72-1.21,4.74-3.08,6.6-4.08l2.73-1.48a12.82,12.82,0,0,0,2.86-2.18v4.78A4.84,4.84,0,0,0,956.5,66,4.31,4.31,0,0,0,953.64,67,5.5,5.5,0,0,0,952.22,72.88Z"/></g><path class="cls-14" d="M961.76,87.63c0,1.1-.39,1.19-0.88.2l-7.49-15.39c-0.48-1-.33-1.08.33-0.2l4.95,6.57c0.66,0.88,1.63,1,2.15.33s0.94-.37.94,0.73v7.76Z"/><path class="cls-14" d="M961.76,66.34c0,1.1-.45,1.28-1,0.39a2.69,2.69,0,0,0-2.91-1l-7.17,2.17c-1.05.32-1.13,0.14-.17-0.41l6.79-3.86a6.52,6.52,0,0,0,2.46-2.85l1.3-3.37c0.39-1,.72-1,0.72.13v8.82Z"/><polygon class="cls-3" points="901.63 4.5 907.51 18.28 917.26 3.76 915.25 -1.73 905.18 -1.73 901.63 4.5"/><polygon class="cls-22" points="901.63 4.5 907.51 18.28 917.26 3.76 915.25 -1.73 905.18 -1.73 901.63 4.5"/><path class="cls-23" d="M923.56,2.12a13.11,13.11,0,0,0-5,4.78l-3.31,5.72a18.45,18.45,0,0,1-3.84,4.76c-1,.72-2.27,3-2.8,5.18l-1.32,5.55c-0.52,2.14-1.07,2.09-1.22-.1l-0.4-5.71a17.72,17.72,0,0,0-1.33-5.85,25.3,25.3,0,0,1-1.83-5.78L901.95,8.1c-0.43-2.16-1.73-4.26-2.88-4.67a55.57,55.57,0,0,0-6-1.52l-3.13-.62c-2.16-.43-2.12-0.77.08-0.76l15.69,0.08c2.2,0,2.61,1,.9,2.14a6.41,6.41,0,0,0-2.33,6l0.22,1.12c0.42,2.16,1.49,4.34,2.36,4.85A3.84,3.84,0,0,0,910,15c0.87-.41,2.35-2.37,3.28-4.36l1.32-2.8c0.94-2,1.06-4.39.26-5.33s0.36-1.7,2.56-1.7h5.16C924.8,0.8,925.24,1.4,923.56,2.12Z"/><path class="cls-24" d="M923.56,0.12a13.11,13.11,0,0,0-5,4.78l-3.31,5.72a18.45,18.45,0,0,1-3.84,4.76c-1,.72-2.27,3-2.8,5.18l-1.32,5.55c-0.52,2.14-1.07,2.09-1.22-.1l-0.4-5.71a17.72,17.72,0,0,0-1.33-5.85,25.3,25.3,0,0,1-1.83-5.78L901.95,6.1c-0.43-2.16-1.73-4.26-2.88-4.67a55.57,55.57,0,0,0-6-1.52l-3.13-.62c-2.16-.43-2.12-0.77.08-0.76l15.69,0.08c2.2,0,2.61,1,.9,2.14a6.41,6.41,0,0,0-2.33,6l0.22,1.12c0.42,2.16,1.49,4.34,2.36,4.85A3.84,3.84,0,0,0,910,13c0.87-.41,2.35-2.37,3.28-4.36l1.32-2.8c0.94-2,1.06-4.39.26-5.33s0.36-1.7,2.56-1.7h5.16C924.8-1.2,925.24-.6,923.56.12Z"/><path class="cls-25" d="M923.56,0.12a13.11,13.11,0,0,0-5,4.78l-3.31,5.72a18.45,18.45,0,0,1-3.84,4.76c-1,.72-2.27,3-2.8,5.18l-1.32,5.55c-0.52,2.14-1.07,2.09-1.22-.1l-0.4-5.71a17.72,17.72,0,0,0-1.33-5.85,25.3,25.3,0,0,1-1.83-5.78L901.95,6.1c-0.43-2.16-1.73-4.26-2.88-4.67a55.57,55.57,0,0,0-6-1.52l-3.13-.62c-2.16-.43-2.12-0.77.08-0.76l15.69,0.08c2.2,0,2.61,1,.9,2.14a6.41,6.41,0,0,0-2.33,6l0.22,1.12c0.42,2.16,1.49,4.34,2.36,4.85A3.84,3.84,0,0,0,910,13c0.87-.41,2.35-2.37,3.28-4.36l1.32-2.8c0.94-2,1.06-4.39.26-5.33s0.36-1.7,2.56-1.7h5.16C924.8-1.2,925.24-.6,923.56.12Z"/><g class="cls-12"><path class="cls-13" d="M907.35,17.92a21.68,21.68,0,0,0-.72-3,6.08,6.08,0,0,0,2.06.35h0.12A13.9,13.9,0,0,0,907.35,17.92Zm10-15A7,7,0,0,0,917.2.78h2.06A16.15,16.15,0,0,0,917.38,3Zm-14.59-.34a8.47,8.47,0,0,0-1.47-2h2.59A8.61,8.61,0,0,0,902.79,2.62Z"/></g><path class="cls-13" d="M914-.73A4.42,4.42,0,0,1,916.58.76l0.05,0.06a2,2,0,0,0,2.81.14l0.36-.33a5.64,5.64,0,0,1,3.25-1.35H914Z"/><path class="cls-13" d="M894.5-.73a13.74,13.74,0,0,1,3.85.67l0.48,0.17a6.36,6.36,0,0,1,2.86,2.29c0.53,0.89,1.06,1.11,1.16.49A4.7,4.7,0,0,1,904.65.61l0.25-.18a6.21,6.21,0,0,1,2.81-1.16H894.5Z"/></g></g><g id="top_left" data-name="top left"><g class="cls-26"><polygon class="cls-3" points="-2.83 94.87 33.36 93.65 33.36 79.84 24.68 75.35 20.04 78.43 12.65 70.81 -2.83 94.87"/><polygon class="cls-27" points="-2.83 94.87 33.36 93.65 33.36 79.84 24.68 75.35 20.04 78.43 12.65 70.81 -2.83 94.87"/><polygon class="cls-3" points="-0.9 73.67 -0.79 87 10.26 71.37 5.51 65.69 -0.9 73.67"/><polygon class="cls-28" points="-0.9 73.67 -0.79 87 10.26 71.37 5.51 65.69 -0.9 73.67"/><path class="cls-29" d="M4.22,86.48a63.92,63.92,0,0,1,4.18-6.8l1.91-2.63a3.39,3.39,0,0,1,5.23-.47s4,3.85,4.51,3.85a5.58,5.58,0,0,0,1.78-1.28,5.37,5.37,0,0,1,6.25-.71l3.38,2.08c1.87,1.15,2.14.82,0.59-.74L28.5,76.21c-1.55-1.56-4.09-2.19-5.64-1.4s-4,.12-5.55-1.48l-6.6-7c-1.5-1.6-4-2.95-5.45-3s-3.17-1.8-3.73-3.93L0.12,54c-0.56-2.13-1-2.07-1,.13V71.67c0,2.2,1.09,2.56,2.41.81L2.64,71C4,69.25,5.92,68.75,7,69.91s0.91,3.58-.33,5.4L3.81,79.47C2.57,81.29,1,82.31.33,81.74s-1.22.77-1.22,3v7.72c0,2.2.82,2.4,1.83,0.44Z"/><path class="cls-10" d="M4.22,84.48a63.92,63.92,0,0,1,4.18-6.8l1.91-2.63a3.39,3.39,0,0,1,5.23-.47s4,3.85,4.51,3.85a5.58,5.58,0,0,0,1.78-1.28,5.37,5.37,0,0,1,6.25-.71l3.38,2.08c1.87,1.15,2.14.82,0.59-.74L28.5,74.21c-1.55-1.56-4.09-2.19-5.64-1.4s-4,.12-5.55-1.48l-6.6-7c-1.5-1.6-4-2.95-5.45-3s-3.17-1.8-3.73-3.93L0.12,52c-0.56-2.13-1-2.07-1,.13V69.67c0,2.2,1.09,2.56,2.41.81L2.64,69C4,67.25,5.92,66.75,7,67.91s0.91,3.58-.33,5.4L3.81,77.47C2.57,79.29,1,80.31.33,79.74s-1.22.77-1.22,3v7.72c0,2.2.82,2.4,1.83,0.44Z"/><path class="cls-30" d="M4.22,84.48a63.92,63.92,0,0,1,4.18-6.8l1.91-2.63a3.39,3.39,0,0,1,5.23-.47s4,3.85,4.51,3.85a5.58,5.58,0,0,0,1.78-1.28,5.37,5.37,0,0,1,6.25-.71l3.38,2.08c1.87,1.15,2.14.82,0.59-.74L28.5,74.21c-1.55-1.56-4.09-2.19-5.64-1.4s-4,.12-5.55-1.48l-6.6-7c-1.5-1.6-4-2.95-5.45-3s-3.17-1.8-3.73-3.93L0.12,52c-0.56-2.13-1-2.07-1,.13V69.67c0,2.2,1.09,2.56,2.41.81L2.64,69C4,67.25,5.92,66.75,7,67.91s0.91,3.58-.33,5.4L3.81,77.47C2.57,79.29,1,80.31.33,79.74s-1.22.77-1.22,3v7.72c0,2.2.82,2.4,1.83,0.44Z"/><g class="cls-12"><path class="cls-13" d="M1.1,82.7c0-.32,0-0.6,0-0.83A6.35,6.35,0,0,0,4.86,79.4c-0.91,1.45-1.81,3-2.41,4.16L1.1,86.17V82.7ZM20.1,76c-0.48-.41-1.11-1-1.77-1.57a7.45,7.45,0,0,0,2.79.68,6.34,6.34,0,0,0-.7.59ZM8.5,74.13c1.6-2.58,1.6-5.79,0-7.58a3.92,3.92,0,0,0-2.92-1.27A5.82,5.82,0,0,0,1.1,67.71V60.94a5.63,5.63,0,0,0,4.1,2.36,7.93,7.93,0,0,1,4,2.35L15.18,72a5.34,5.34,0,0,0-2.07-.42,5.43,5.43,0,0,0-4.42,2.32Z"/></g><polygon class="cls-3" points="50.34 -0.63 40.83 7.87 37.5 0.44 41.35 -0.63 50.34 -0.63"/><polygon class="cls-31" points="50.34 -0.63 40.83 7.87 37.5 0.44 41.35 -0.63 50.34 -0.63"/><polygon class="cls-3" points="29.83 14.37 25.83 30.37 33.52 30.37 38.1 24.24 42.5 22.05 43.04 17.43 37.92 10.26 29.83 14.37"/><polygon class="cls-32" points="29.83 14.37 25.83 30.37 33.52 30.37 38.1 24.24 42.5 22.05 43.04 17.43 37.92 10.26 29.83 14.37"/><path class="cls-33" d="M53.73,3.79c-1.8,1.27-4.62,3.49-6.28,4.94l-1.54,1.34a8.21,8.21,0,0,0-2.45,6.59s1.12,7.8,1.12,8.29-3.19,1.3-3.19,1.3a12.45,12.45,0,0,0-6.16,4.27l-0.07.11c-1.26,1.81-1.58,1.63-.72-0.4l1-2.25c0.86-2,2.68-4,4-4.42s1.88-2.43,1.14-4.5l-0.93-2.6A3.15,3.15,0,0,0,35,14.53a12.15,12.15,0,0,0-4.58,5.61L26.93,30c-0.74,2.07-1,2-.64-0.17l1.88-10.51a12.9,12.9,0,0,1,3.76-6.51l2.23-1.88C35.84,9.5,36.85,7,36.39,5.39A12,12,0,0,0,32.9.29C31.44-.89,32-1.85,34.24-1.85h6.2c2.2,0,2.75,1.3,1.23,2.89l-0.17.17c-1.52,1.59-2,4-1,5.32s3.08,1.22,4.71-.26l2.19-2C49,2.81,50,.82,49.48-0.13s0.94-1.72,3.14-1.72h5.07c2.2,0,2.53,1,.74,2.31Z"/><path class="cls-24" d="M53.73,1.79c-1.8,1.27-4.62,3.49-6.28,4.94L45.91,8.07a8.21,8.21,0,0,0-2.45,6.59s1.12,7.8,1.12,8.29-3.19,1.3-3.19,1.3a12.45,12.45,0,0,0-6.16,4.27l-0.07.11c-1.26,1.81-1.58,1.63-.72-0.4l1-2.25c0.86-2,2.68-4,4-4.42s1.88-2.43,1.14-4.5l-0.93-2.6A3.15,3.15,0,0,0,35,12.53a12.15,12.15,0,0,0-4.58,5.61L26.93,28c-0.74,2.07-1,2-.64-0.17l1.88-10.51a12.9,12.9,0,0,1,3.76-6.51l2.23-1.88C35.84,7.5,36.85,5,36.39,3.39a12,12,0,0,0-3.49-5.1C31.44-2.89,32-3.85,34.24-3.85h6.2c2.2,0,2.75,1.3,1.23,2.89L41.5-.79c-1.52,1.59-2,4-1,5.32s3.08,1.22,4.71-.26l2.19-2C49,0.81,50-1.18,49.48-2.13s0.94-1.72,3.14-1.72h5.07c2.2,0,2.53,1,.74,2.31Z"/><path class="cls-34" d="M53.73,1.79c-1.8,1.27-4.62,3.49-6.28,4.94L45.91,8.07a8.21,8.21,0,0,0-2.45,6.59s1.12,7.8,1.12,8.29-3.19,1.3-3.19,1.3a12.45,12.45,0,0,0-6.16,4.27l-0.07.11c-1.26,1.81-1.58,1.63-.72-0.4l1-2.25c0.86-2,2.68-4,4-4.42s1.88-2.43,1.14-4.5l-0.93-2.6A3.15,3.15,0,0,0,35,12.53a12.15,12.15,0,0,0-4.58,5.61L26.93,28c-0.74,2.07-1,2-.64-0.17l1.88-10.51a12.9,12.9,0,0,1,3.76-6.51l2.23-1.88C35.84,7.5,36.85,5,36.39,3.39a12,12,0,0,0-3.49-5.1C31.44-2.89,32-3.85,34.24-3.85h6.2c2.2,0,2.75,1.3,1.23,2.89L41.5-.79c-1.52,1.59-2,4-1,5.32s3.08,1.22,4.71-.26l2.19-2C49,0.81,50-1.18,49.48-2.13s0.94-1.72,3.14-1.72h5.07c2.2,0,2.53,1,.74,2.31Z"/><g class="cls-12"><path class="cls-13" d="M42,22a4.34,4.34,0,0,0,.32-0.53l0-.08,0.06,0.48Zm-0.61-8.47a5.25,5.25,0,0,0-4.82-3.41,4.94,4.94,0,0,0-.84.07A8.77,8.77,0,0,0,38.45,5a4.3,4.3,0,0,0,.4.68,4.31,4.31,0,0,0,3.56,1.77,5.44,5.44,0,0,0,1.5-.21A10.52,10.52,0,0,0,41.41,13.52ZM38,2A14.48,14.48,0,0,0,35.6-1.85h4.17A7.44,7.44,0,0,0,38,2Zm12.44-.31a6,6,0,0,0,1.12-3.48,5.73,5.73,0,0,1,1-.08H55.4l-2.83,2C52,0.59,51.23,1.13,50.47,1.71Z"/></g><path class="cls-14" d="M67-4.67c1.1,0,1.12.25,0.05,0.49l-1.87.44a15.59,15.59,0,0,0-3.67,1.47L47.29,6.15c-0.95.56-1.12,0.35-.39-0.48l4.49-5.05a3.79,3.79,0,0,0,.68-3.39l-0.12-.34A1.31,1.31,0,0,1,53.3-5Z"/><path class="cls-14" d="M35.5-3.28c-1.1.06-1.4,0.8-.68,1.62l5.39,6.15c0.72,0.83,1,.68.52-0.33l-0.6-1.38a2.34,2.34,0,0,1,.92-2.86L45.91-3c0.94-.56.82-1-0.28-0.91Z"/><path class="cls-14" d="M-0.53,96.75c0.11,1.09.19,1.09,0.19,0V95c0-1.1.07-2.9,0.15-4L0,88.36A8.74,8.74,0,0,1,1.3,84.72l4.53-6.55c0.63-.9.45-1.06-0.38-0.35L1.19,81.47c-0.84.71-1.91,0.91-2.38,0.43S-2,81.93-1.85,83Z"/><path class="cls-14" d="M-1,71.68C-1,72.78-.38,72.94.25,72l3.85-5.49a1.78,1.78,0,0,1,2.67-.33l1.16,1a3.3,3.3,0,0,0,2.37,1c0.47-.17.21-0.93-0.58-1.7L8.59,65.4a15.54,15.54,0,0,0-3.22-2.29L1,60.93a4.5,4.5,0,0,1-2.14-2.86L-1.86,54c-0.19-1.08-.3-1.07-0.23,0Z"/></g></g><g id="bottom_left-2" data-name="bottom left"><g class="cls-35"><polygon class="cls-3" points="961 440.11 954.4 440.76 945.15 438.22 938.34 429.24 953.8 420.06 960.61 423.55 961 440.11"/><polygon class="cls-36" points="961 440.11 954.4 440.76 945.15 438.22 938.34 429.24 953.8 420.06 960.61 423.55 961 440.11"/><polygon class="cls-3" points="961 524.11 958.11 518.4 948.5 508.36 953.8 504.06 960.61 507.55 961 524.11"/><polygon class="cls-37" points="961 524.11 958.11 518.4 948.5 508.36 953.8 504.06 960.61 507.55 961 524.11"/><polygon class="cls-3" points="934.85 515.52 947.01 509.44 952 516.76 934.85 515.52"/><polygon class="cls-38" points="934.85 515.52 947.01 509.44 952 516.76 934.85 515.52"/><polygon class="cls-3" points="944.22 498 914.34 498 929.8 489.06 936.61 492.55 944.22 498"/><polygon class="cls-39" points="944.22 498 914.34 498 929.8 489.06 936.61 492.55 944.22 498"/><polygon class="cls-3" points="921.5 436.25 929.22 429.65 937.19 431.86 941.61 436.55 921.5 436.25"/><polygon class="cls-40" points="921.5 436.25 929.22 429.65 937.19 431.86 941.61 436.55 921.5 436.25"/><polygon class="cls-3" points="963 523.11 962 530.6 947.01 509.44 955.8 503.06 962.61 506.55 963 523.11"/><polygon class="cls-41" points="963 523.11 962 530.6 947.01 509.44 955.8 503.06 962.61 506.55 963 523.11"/><path class="cls-42" d="M958.53,414.51a12,12,0,0,1-5,5.53l-9.16,4.61c-2,1-3.79,2.52-4.06,3.4s-2.28,1.55-4.48,1.49l-1.89-.05a10.92,10.92,0,0,0-6.87,2.67l-4.18,4.06c-1.58,1.53-1.46,1.66.26,0.29l3-2.36a8.83,8.83,0,0,1,7-1.42l0.27,0.07a15.34,15.34,0,0,1,6.44,4.12l0,0a13.46,13.46,0,0,0,6.51,3.84l5.87,1.18a6.86,6.86,0,0,1,4.86,4.68l3,12.2c0.52,2.14.93,2.09,0.92-.11l-0.12-23.33c0-2.2-.86-2.41-1.89-0.46l-0.44.84c-1,1.95-2.86,3.54-4.07,3.54a34.85,34.85,0,0,1-6.1-.91l-1-.24c-2.14-.5-4.45-1.84-5.12-3a5,5,0,0,1-.25-4.14c0.54-1.14,2.61-2.83,4.6-3.77l6-2.81c2-.93,4.63-0.84,5.87.2s2.24,0.1,2.24-2.1l0-9.33c0-2.2-.66-2.32-1.45-0.27Z"/><path class="cls-10" d="M958.53,412.51a12,12,0,0,1-5,5.53l-9.16,4.61c-2,1-3.79,2.52-4.06,3.4s-2.28,1.55-4.48,1.49l-1.89-.05a10.92,10.92,0,0,0-6.87,2.67l-4.18,4.06c-1.58,1.53-1.46,1.66.26,0.29l3-2.36a8.83,8.83,0,0,1,7-1.42l0.27,0.07a15.34,15.34,0,0,1,6.44,4.12l0,0a13.46,13.46,0,0,0,6.51,3.84l5.87,1.18a6.86,6.86,0,0,1,4.86,4.68l3,12.2c0.52,2.14.93,2.09,0.92-.11l-0.12-23.33c0-2.2-.86-2.41-1.89-0.46l-0.44.84c-1,1.95-2.86,3.54-4.07,3.54a34.85,34.85,0,0,1-6.1-.91l-1-.24c-2.14-.5-4.45-1.84-5.12-3a5,5,0,0,1-.25-4.14c0.54-1.14,2.61-2.83,4.6-3.77l6-2.81c2-.93,4.63-0.84,5.87.2s2.24,0.1,2.24-2.1l0-9.33c0-2.2-.66-2.32-1.45-0.27Z"/><path class="cls-43" d="M958.53,412.51a12,12,0,0,1-5,5.53l-9.16,4.61c-2,1-3.79,2.52-4.06,3.4s-2.28,1.55-4.48,1.49l-1.89-.05a10.92,10.92,0,0,0-6.87,2.67l-4.18,4.06c-1.58,1.53-1.46,1.66.26,0.29l3-2.36a8.83,8.83,0,0,1,7-1.42l0.27,0.07a15.34,15.34,0,0,1,6.44,4.12l0,0a13.46,13.46,0,0,0,6.51,3.84l5.87,1.18a6.86,6.86,0,0,1,4.86,4.68l3,12.2c0.52,2.14.93,2.09,0.92-.11l-0.12-23.33c0-2.2-.86-2.41-1.89-0.46l-0.44.84c-1,1.95-2.86,3.54-4.07,3.54a34.85,34.85,0,0,1-6.1-.91l-1-.24c-2.14-.5-4.45-1.84-5.12-3a5,5,0,0,1-.25-4.14c0.54-1.14,2.61-2.83,4.6-3.77l6-2.81c2-.93,4.63-0.84,5.87.2s2.24,0.1,2.24-2.1l0-9.33c0-2.2-.66-2.32-1.45-0.27Z"/><g class="cls-12"><path class="cls-13" d="M958.85,443.66a9,9,0,0,0-3.53-4.49,7.49,7.49,0,0,0,3.5-2.42Zm-19.18-11.61a19.19,19.19,0,0,0-4-2.52h0.45a10.34,10.34,0,0,0,3.73-.66A7.14,7.14,0,0,0,939.68,432.05Zm18.92-11.59a7.25,7.25,0,0,0-3.12-.65,9.31,9.31,0,0,0-1.17.08l0.12-.06a13.53,13.53,0,0,0,4.17-3.57v4.21Z"/></g><path class="cls-44" d="M955.44,524.11a63.92,63.92,0,0,0-4.18-6.8l-1.91-2.63a4.61,4.61,0,0,0-5.83-1.28s-7.27,4.08-7.76,4.08-3.39-2.75-3.39-2.75a8,8,0,0,0-6.24-2c-1.84.39-1.75-.15,0.18-1.19l0.57-.31a7.5,7.5,0,0,1,6.76.09,6.31,6.31,0,0,0,6.47-.36l3.66-2.67a3.3,3.3,0,0,0,.39-5.17l-9.09-9a6,6,0,0,0-6.42-1l-10.77,5.4c-2,1-2.11.75-.31-0.52l12.14-8.61a5,5,0,0,1,6.15.45l12.6,12.08c1.59,1.52,4.21,2.32,5.84,1.77a9.62,9.62,0,0,0,4.6-4.2c0.91-1.76,1.75-1.41,1.87.79l0.56,10.09c0.12,2.2-.87,2.56-2.19.8L958,509.63c-1.33-1.75-3.51-2.25-4.84-1.09s-1.35,3.54,0,5.29l2.54,3.38c1.32,1.76,3,2.73,3.63,2.16s1.22,0.77,1.22,3v7.72c0,2.2-.82,2.4-1.83.44Z"/><path class="cls-10" d="M955.44,522.11a63.92,63.92,0,0,0-4.18-6.8l-1.91-2.63a4.61,4.61,0,0,0-5.83-1.28s-7.27,4.08-7.76,4.08-3.39-2.75-3.39-2.75a8,8,0,0,0-6.24-2c-1.84.39-1.75-.15,0.18-1.19l0.57-.31a7.5,7.5,0,0,1,6.76.09,6.31,6.31,0,0,0,6.47-.36l3.66-2.67a3.3,3.3,0,0,0,.39-5.17l-9.09-9a6,6,0,0,0-6.42-1l-10.77,5.4c-2,1-2.11.75-.31-0.52l12.14-8.61a5,5,0,0,1,6.15.45l12.6,12.08c1.59,1.52,4.21,2.32,5.84,1.77a9.62,9.62,0,0,0,4.6-4.2c0.91-1.76,1.75-1.41,1.87.79l0.56,10.09c0.12,2.2-.87,2.56-2.19.8L958,507.63c-1.33-1.75-3.51-2.25-4.84-1.09s-1.35,3.54,0,5.29l2.54,3.38c1.32,1.76,3,2.73,3.63,2.16s1.22,0.77,1.22,3v7.72c0,2.2-.82,2.4-1.83.44Z"/><path class="cls-45" d="M955.44,522.11a63.92,63.92,0,0,0-4.18-6.8l-1.91-2.63a4.61,4.61,0,0,0-5.83-1.28s-7.27,4.08-7.76,4.08-3.39-2.75-3.39-2.75a8,8,0,0,0-6.24-2c-1.84.39-1.75-.15,0.18-1.19l0.57-.31a7.5,7.5,0,0,1,6.76.09,6.31,6.31,0,0,0,6.47-.36l3.66-2.67a3.3,3.3,0,0,0,.39-5.17l-9.09-9a6,6,0,0,0-6.42-1l-10.77,5.4c-2,1-2.11.75-.31-0.52l12.14-8.61a5,5,0,0,1,6.15.45l12.6,12.08c1.59,1.52,4.21,2.32,5.84,1.77a9.62,9.62,0,0,0,4.6-4.2c0.91-1.76,1.75-1.41,1.87.79l0.56,10.09c0.12,2.2-.87,2.56-2.19.8L958,507.63c-1.33-1.75-3.51-2.25-4.84-1.09s-1.35,3.54,0,5.29l2.54,3.38c1.32,1.76,3,2.73,3.63,2.16s1.22,0.77,1.22,3v7.72c0,2.2-.82,2.4-1.83.44Z"/><g class="cls-12"><path class="cls-13" d="M957.22,521.19c-0.52-1-1.25-2.29-2-3.55a6,6,0,0,0,3.34,1.87c0,0.23,0,.5,0,0.82v3.47Zm-21.27-8c-0.46-.38-1.12-1-1.77-1.55a8.15,8.15,0,0,0,2.32.33,8.84,8.84,0,0,0,2.39-.33C937.7,512.32,936.63,512.88,935.95,513.23Zm14.51-2.35a6.62,6.62,0,0,0-4.8-2,6.36,6.36,0,0,0-3.11.8l-0.19.11,2.61-1.9a5.43,5.43,0,0,0,2.27-4,5.33,5.33,0,0,0-.9-3.35l0.77,0.74a9.25,9.25,0,0,0,6.06,2.5,5.63,5.63,0,0,0,1.8-.28,10.52,10.52,0,0,0,4-2.73l0.29,5.14a5.93,5.93,0,0,0-4.3-2,4.57,4.57,0,0,0-3,1.11A5.5,5.5,0,0,0,950.46,510.88Zm-15.81-21.53a8.29,8.29,0,0,0-2.86-.79,3.17,3.17,0,0,1,.71-0.08,3,3,0,0,1,2,.73Z"/></g><path class="cls-46" d="M891.39,574.76a40.51,40.51,0,0,0,6.94-3.86L901,569a4.7,4.7,0,0,0,1.33-5.86s-4-7.43-4-7.92,16.83-19.07,16.83-19.07c1.48-1.63,1.68-1.47.45,0.35L904.4,553.07a6.28,6.28,0,0,0,.06,6.59l3,4.21c1.26,1.8,3.16,4.86,4.21,6.79l1.48,2.73a11.32,11.32,0,0,0,5.11,4.66c1.76,0.63,1.4,1.15-.8,1.15H906.34c-2.2,0-2.46-.89-0.57-2s2.49-3.07,1.33-4.4-3.54-1.35-5.29,0l-3.38,2.54c-1.76,1.32-3,2.73-2.66,3.13s-1.27.72-3.47,0.72h-7.72c-2.2,0-2.33-.68-0.3-1.52Z"/><path class="cls-10" d="M891.39,572.76a40.51,40.51,0,0,0,6.94-3.86L901,567a4.7,4.7,0,0,0,1.33-5.86s-4-7.43-4-7.92,16.83-19.07,16.83-19.07c1.48-1.63,1.68-1.47.45,0.35L904.4,551.07a6.28,6.28,0,0,0,.06,6.59l3,4.21c1.26,1.8,3.16,4.86,4.21,6.79l1.48,2.73a11.32,11.32,0,0,0,5.11,4.66c1.76,0.63,1.4,1.15-.8,1.15H906.34c-2.2,0-2.46-.89-0.57-2s2.49-3.07,1.33-4.4-3.54-1.35-5.29,0l-3.38,2.54c-1.76,1.32-3,2.73-2.66,3.13s-1.27.72-3.47,0.72h-7.72c-2.2,0-2.33-.68-0.3-1.52Z"/><path class="cls-47" d="M891.39,572.76a40.51,40.51,0,0,0,6.94-3.86L901,567a4.7,4.7,0,0,0,1.33-5.86s-4-7.43-4-7.92,16.83-19.07,16.83-19.07c1.48-1.63,1.68-1.47.45,0.35L904.4,551.07a6.28,6.28,0,0,0,.06,6.59l3,4.21c1.26,1.8,3.16,4.86,4.21,6.79l1.48,2.73a11.32,11.32,0,0,0,5.11,4.66c1.76,0.63,1.4,1.15-.8,1.15H906.34c-2.2,0-2.46-.89-0.57-2s2.49-3.07,1.33-4.4-3.54-1.35-5.29,0l-3.38,2.54c-1.76,1.32-3,2.73-2.66,3.13s-1.27.72-3.47,0.72h-7.72c-2.2,0-2.33-.68-0.3-1.52Z"/><path class="cls-14" d="M963.08,528.6c0,1.1-.54,1.22-1.1.28l-8.42-14.22c-0.56-.95-0.39-1.08.39-0.3l5.23,5.3a1.24,1.24,0,0,0,2.18-.42l1.57-3.73c0.43-1,.74-0.94.69,0.16Z"/><path class="cls-14" d="M964.44,498.83c0.24-1.07-.33-1.49-1.28-0.92l-9.77,5.89c-0.94.57-.84,0.83,0.23,0.58l2-.48a2.77,2.77,0,0,1,2.9,1.3l2.19,4c0.52,1,1.15.88,1.39-.19Z"/><path class="cls-14" d="M960,445.38c0,0.55-.18.59-0.4,0.08l-1.7-3.92a2,2,0,0,0-1.39-1L953,440c-0.55-.07-0.55-0.22,0-0.33l3-.62a3,3,0,0,0,1.56-1l2-2.75c0.32-.45.58-0.36,0.58,0.19v9.88Z"/><path class="cls-14" d="M961.73,424a0.5,0.5,0,0,1-.85.44l-4.06-2.75a2,2,0,0,0-1.75-.16l-6.75,2.92c-0.5.22-.55,0.14-0.09-0.17l8-5.47a5.8,5.8,0,0,0,1.36-1.41l3.83-6c0.3-.46.53-0.39,0.52,0.16Z"/></g></g><g id="cracks"><polygon class="cls-3" points="655.58 372.39 651.61 377.1 654.78 378.63 655.58 372.39"/><polygon class="cls-14" points="655.58 372.39 659.53 381 654.63 381 655.58 372.39"/><polygon class="cls-3" points="359.56 303.39 363.53 307.69 360.28 309.06 359.56 303.39"/><polygon class="cls-14" points="359.56 303.39 356 311.63 360.28 310.46 359.56 303.39"/><polygon class="cls-3" points="309.28 340.21 308.99 346.06 312.35 345.03 309.28 340.21"/><polygon class="cls-14" points="309.28 340.21 318.6 346.38 313.25 346.11 309.28 340.21"/><polygon class="cls-48" points="383.57 198.39 380.61 204.1 382.31 209.85 383.57 198.39"/><polygon class="cls-10" points="383.57 198.39 385.53 203.22 382.63 207 383.57 198.39"/><polygon class="cls-48" points="590.31 298.47 592.14 303.38 589.14 307.38 588.14 302.38 590.31 298.47"/><polygon class="cls-10" points="590.31 298.47 586 305.38 588.63 306.97 590.31 298.47"/><polygon class="cls-48" points="280.56 261.39 283.53 267.1 281.82 272.85 280.56 261.39"/><polygon class="cls-10" points="280.56 261.39 278.61 266.22 281.51 270 280.56 261.39"/><polygon class="cls-48" points="668.58 261.39 665.61 267.1 667.31 272.85 668.58 261.39"/><polygon class="cls-10" points="668.58 261.39 670.53 266.22 667.63 270 668.58 261.39"/></g><g id="mask_for_wings" data-name="mask for wings"><polygon class="cls-13" points="571 254.38 575 254.38 576.42 249.38 575 249.38 571 254.38"/><polygon class="cls-13" points="379.21 254.38 375.21 254.38 373.79 249.38 375.21 249.38 379.21 254.38"/></g></g></g></svg>