<svg xmlns="http://www.w3.org/2000/svg" xmlns:xlink="http://www.w3.org/1999/xlink" viewBox="0 0 161 44"><defs><style>.cls-1{isolation:isolate;}.cls-2{fill:#594858;}.cls-3,.cls-6,.cls-7{mix-blend-mode:darken;}.cls-4{fill:url(#linear-gradient);}.cls-5{mask:url(#mask);}.cls-6{fill:#322838;opacity:0.5;}.cls-7{opacity:0.3;fill:url(#linear-gradient-2);}.cls-12,.cls-8,.cls-9{fill:none;stroke-linecap:round;stroke-linejoin:round;}.cls-12,.cls-8{stroke:#322838;}.cls-8{stroke-width:8px;}.cls-9{stroke:#594858;stroke-width:4px;}.cls-10{fill:url(#linear-gradient-3);}.cls-11{fill:url(#linear-gradient-4);}.cls-12{stroke-width:2px;}.cls-13,.cls-14{opacity:0.6;}.cls-13{fill:url(#linear-gradient-5);}.cls-14{fill:url(#linear-gradient-6);}.cls-15{filter:url(#luminosity-invert);}</style><linearGradient id="linear-gradient" x1="80" y1="30.46" x2="80" y2="5.74" gradientUnits="userSpaceOnUse"><stop offset="0" stop-color="#4a4151" stop-opacity="0"/><stop offset="1" stop-color="#4a4151"/></linearGradient><filter id="luminosity-invert" filterUnits="userSpaceOnUse" color-interpolation-filters="sRGB"><feColorMatrix values="-1 0 0 0 1 0 -1 0 0 1 0 0 -1 0 1 0 0 0 1 0"/></filter><linearGradient id="linear-gradient-2" x1="80" y1="38" x2="80" y2="5" gradientUnits="userSpaceOnUse"><stop offset="0" stop-color="#322838" stop-opacity="0.3"/><stop offset="1" stop-color="#322838"/></linearGradient><linearGradient id="linear-gradient-3" x1="-1391" y1="21" x2="-1546" y2="21" gradientTransform="matrix(-1, 0, 0, 1, -1388, 0)" gradientUnits="userSpaceOnUse"><stop offset="0" stop-color="#594858" stop-opacity="0"/><stop offset="0.05" stop-color="#7d6c75" stop-opacity="0.58"/><stop offset="0.08" stop-color="#958488" stop-opacity="0.96"/><stop offset="0.23" stop-color="#594858" stop-opacity="0"/></linearGradient><linearGradient id="linear-gradient-4" x1="-1391" y1="21" x2="-1546" y2="21" gradientTransform="matrix(-1, 0, 0, 1, -1388, 0)" gradientUnits="userSpaceOnUse"><stop offset="0.77" stop-color="#594858" stop-opacity="0"/><stop offset="0.92" stop-color="#958488" stop-opacity="0.96"/><stop offset="0.95" stop-color="#7d6c75" stop-opacity="0.58"/><stop offset="1" stop-color="#594858" stop-opacity="0"/></linearGradient><linearGradient id="linear-gradient-5" x1="77" y1="4" x2="119" y2="4" gradientUnits="userSpaceOnUse"><stop offset="0" stop-color="#5e4d5c" stop-opacity="0"/><stop offset="0.55" stop-color="#97868a"/><stop offset="1" stop-color="#5e4d5c" stop-opacity="0"/></linearGradient><linearGradient id="linear-gradient-6" y1="38" y2="38" xlink:href="#linear-gradient-5"/></defs><title>Game 1.8 export</title><g class="cls-1"><g id="Roundcounter_background" data-name="Roundcounter background"><g id="left"><polygon class="cls-2" points="144 38 16 38 5 32 4 17 16 5 144 5 156 16 153 31 144 38"/><g class="cls-3"><polygon class="cls-4" points="144 38 16 38 5 32 4 17 16 5 144 5 156 16 153 31 144 38"/><g class="cls-5"><polygon class="cls-6" points="144 38 16 38 5 32 4 17 16 5 144 5 156 16 153 31 144 38"/></g></g><polygon class="cls-7" points="144 38 16 38 5 32 4 17 16 5 144 5 156 16 153 31 144 38"/><polygon class="cls-8" points="4 16.57 16 6 144 6 156 18.85 147 27.93 141 22.96 146 17.98 157 27.14 143 40 15 40 4 32 4 16.57"/><polygon class="cls-8" points="4 14.57 16 4 144 4 156 16.85 147 25.93 141 20.96 146 15.98 157 25.14 143 38 15 38 4 30 4 14.57"/><polygon class="cls-9" points="4 14.57 16 4 144 4 156 16.85 147 25.93 141 20.96 146 15.98 157 25.14 143 38 15 38 4 30 4 14.57"/><path class="cls-10" d="M143,39H15a1,1,0,0,1-.59-0.19l-11-8A1,1,0,0,1,3,30V14.57a1,1,0,0,1,.34-0.75l12-10.57A1,1,0,0,1,16,3H144a1,1,0,0,1,.73.32l12,12.85a1,1,0,0,1,0,1.39l-3.28,3.31,4.21,3.51a1,1,0,0,1,0,1.5l-14,12.86A1,1,0,0,1,143,39ZM15.32,37H142.61l12.87-11.82L152,22.29l-4.3,4.34a1,1,0,0,1-1.35.07l-6-5a1,1,0,0,1-.07-1.48l5-5a1,1,0,0,1,1.35-.06l5.25,4.37,2.73-2.75L143.57,5H16.38L5,15V29.49ZM142.49,20.89l4.45,3.68L150.47,21l-4.41-3.67Z"/><path class="cls-11" d="M143,39H15a1,1,0,0,1-.59-0.19l-11-8A1,1,0,0,1,3,30V14.57a1,1,0,0,1,.34-0.75l12-10.57A1,1,0,0,1,16,3H144a1,1,0,0,1,.73.32l12,12.85a1,1,0,0,1,0,1.39l-3.28,3.31,4.21,3.51a1,1,0,0,1,0,1.5l-14,12.86A1,1,0,0,1,143,39ZM15.32,37H142.61l12.87-11.82L152,22.29l-4.3,4.34a1,1,0,0,1-1.35.07l-6-5a1,1,0,0,1-.07-1.48l5-5a1,1,0,0,1,1.35-.06l5.25,4.37,2.73-2.75L143.57,5H16.38L5,15V29.49ZM142.49,20.89l4.45,3.68L150.47,21l-4.41-3.67Z"/><line class="cls-12" x1="152.19" y1="16.44" x2="147.19" y2="21.44"/><line class="cls-12" x1="156.19" y1="20.44" x2="151.19" y2="25.44"/><rect class="cls-13" x="77" y="3" width="42" height="2"/><rect class="cls-14" x="77" y="37" width="42" height="2"/></g></g></g></svg>