<svg xmlns="http://www.w3.org/2000/svg" xmlns:xlink="http://www.w3.org/1999/xlink" viewBox="0 0 44 44"><defs><style>.cls-1{isolation:isolate;}.cls-2{fill:#651928;}.cls-3{fill:url(#linear-gradient);}.cls-11,.cls-4,.cls-7{opacity:0.5;}.cls-11,.cls-4,.cls-6,.cls-7,.cls-8,.cls-9{mix-blend-mode:darken;}.cls-4{fill:url(#linear-gradient-2);}.cls-5{fill:url(#linear-gradient-3);}.cls-6{fill:#4c1421;}.cls-7{fill:url(#linear-gradient-4);}.cls-9{fill:#322838;}.cls-10{fill:url(#linear-gradient-5);}.cls-11{fill:url(#linear-gradient-6);}</style><linearGradient id="linear-gradient" x1="22" y1="1.5" x2="22" y2="42.5" gradientUnits="userSpaceOnUse"><stop offset="0" stop-color="#963a4c"/><stop offset="0.41" stop-color="#963a4c" stop-opacity="0.99"/><stop offset="0.56" stop-color="#963a4c" stop-opacity="0.94"/><stop offset="0.67" stop-color="#963a4c" stop-opacity="0.86"/><stop offset="0.76" stop-color="#963a4c" stop-opacity="0.75"/><stop offset="0.83" stop-color="#963a4c" stop-opacity="0.6"/><stop offset="0.9" stop-color="#963a4c" stop-opacity="0.42"/><stop offset="0.95" stop-color="#963a4c" stop-opacity="0.21"/><stop offset="1" stop-color="#963a4c" stop-opacity="0"/></linearGradient><linearGradient id="linear-gradient-2" x1="22" y1="42" x2="22" y2="14" gradientUnits="userSpaceOnUse"><stop offset="0" stop-color="#651928"/><stop offset="1" stop-color="#651928" stop-opacity="0"/></linearGradient><linearGradient id="linear-gradient-3" x1="2375.44" y1="1244.84" x2="2375.44" y2="1268.8" gradientTransform="matrix(-1, 0, 0, 1, 2398.85, -1241.6)" gradientUnits="userSpaceOnUse"><stop offset="0" stop-color="#695a6a"/><stop offset="1" stop-color="#695a6a" stop-opacity="0"/></linearGradient><linearGradient id="linear-gradient-4" x1="2375.44" y1="1267.38" x2="2375.44" y2="1243.42" gradientTransform="matrix(-1, 0, 0, 1, 2398.85, -1241.6)" gradientUnits="userSpaceOnUse"><stop offset="0" stop-color="#322838" stop-opacity="0"/><stop offset="0.14" stop-color="#322838" stop-opacity="0.24"/><stop offset="0.46" stop-color="#322838" stop-opacity="0.66"/><stop offset="0.75" stop-color="#322838" stop-opacity="0.91"/><stop offset="1" stop-color="#322838"/></linearGradient><linearGradient id="linear-gradient-5" x1="2365.73" y1="1267.09" x2="2365.73" y2="1292.6" gradientTransform="translate(-1265.22 2390.31) rotate(-90)" xlink:href="#linear-gradient-3"/><linearGradient id="linear-gradient-6" x1="2367.25" y1="1292.6" x2="2367.25" y2="1267.09" gradientTransform="translate(-1265.22 2390.31) rotate(-90)" xlink:href="#linear-gradient-4"/></defs><title>Game 1.8 export</title><g class="cls-1"><g id="Red_stone_-_Alive" data-name="Red stone - Alive"><rect class="cls-2" x="2" y="2" width="40" height="40" rx="3" ry="3"/><rect class="cls-3" x="1.5" y="1.5" width="41" height="41" rx="3.5" ry="3.5"/><path class="cls-2" d="M39,2a3,3,0,0,1,3,3V39a3,3,0,0,1-3,3H5a3,3,0,0,1-3-3V5A3,3,0,0,1,5,2H39m0-1H5A4,4,0,0,0,1,5V39a4,4,0,0,0,4,4H39a4,4,0,0,0,4-4V5a4,4,0,0,0-4-4h0Z"/><path class="cls-4" d="M4,32a2.94,2.94,0,0,0,3,3H37a2.76,2.76,0,0,0,3-3V14l2,3V39a3,3,0,0,1-3,3H5a3,3,0,0,1-3-3V17l2-3V32Z"/><path class="cls-5" d="M31.15,7.24c-1.28.9-3.28,2.48-4.46,3.51l-1.1,1a5.84,5.84,0,0,0-1.74,4.68s0.8,5.54.8,5.89-2.27.92-2.27,0.92a8.85,8.85,0,0,0-4.38,3l-0.05.08c-0.89,1.28-1.12,1.16-.51-0.28l0.68-1.6A5.91,5.91,0,0,1,21,21.29c1-.29,1.34-1.73.81-3.2l-0.66-1.85a2.24,2.24,0,0,0-3.26-1.37,8.64,8.64,0,0,0-3.26,4l-2.51,7c-0.53,1.47-.73,1.42-0.46-0.12L13,18.27a9.17,9.17,0,0,1,2.68-4.63l1.58-1.33a4.34,4.34,0,0,0,1.59-3.93,8.5,8.5,0,0,0-2.48-3.62c-1-.84-0.61-1.53,1-1.53H21.7c1.56,0,2,.92.87,2.05l-0.12.12C21.38,6.54,21,8.24,21.73,9.19s2.19,0.87,3.35-.18L26.63,7.6c1.16-1,1.83-2.46,1.5-3.13s0.67-1.23,2.23-1.23H34c1.56,0,1.8.74,0.52,1.64Z"/><path class="cls-6" d="M31.15,5.82c-1.28.9-3.28,2.48-4.46,3.51l-1.1,1A5.84,5.84,0,0,0,23.85,15s0.8,5.54.8,5.89-2.27.92-2.27,0.92a8.85,8.85,0,0,0-4.38,3l-0.05.08c-0.89,1.28-1.12,1.16-.51-0.28L18.11,23A5.91,5.91,0,0,1,21,19.87c1-.29,1.34-1.73.81-3.2l-0.66-1.85a2.24,2.24,0,0,0-3.26-1.37,8.64,8.64,0,0,0-3.26,4l-2.51,7c-0.53,1.47-.73,1.42-0.46-0.12L13,16.85a9.17,9.17,0,0,1,2.68-4.63l1.58-1.33A4.34,4.34,0,0,0,18.83,7a8.5,8.5,0,0,0-2.48-3.62c-1-.84-0.61-1.53,1-1.53H21.7c1.56,0,2,.92.87,2.05L22.46,4C21.38,5.12,21,6.82,21.73,7.77s2.19,0.87,3.35-.18l1.56-1.41c1.16-1,1.83-2.46,1.5-3.13s0.67-1.23,2.23-1.23H34c1.56,0,1.8.74,0.52,1.64Z"/><path class="cls-7" d="M31.15,5.82c-1.28.9-3.28,2.48-4.46,3.51l-1.1,1A5.84,5.84,0,0,0,23.85,15s0.8,5.54.8,5.89-2.27.92-2.27,0.92a8.85,8.85,0,0,0-4.38,3l-0.05.08c-0.89,1.28-1.12,1.16-.51-0.28L18.11,23A5.91,5.91,0,0,1,21,19.87c1-.29,1.34-1.73.81-3.2l-0.66-1.85a2.24,2.24,0,0,0-3.26-1.37,8.64,8.64,0,0,0-3.26,4l-2.51,7c-0.53,1.47-.73,1.42-0.46-0.12L13,16.85a9.17,9.17,0,0,1,2.68-4.63l1.58-1.33A4.34,4.34,0,0,0,18.83,7a8.5,8.5,0,0,0-2.48-3.62c-1-.84-0.61-1.53,1-1.53H21.7c1.56,0,2,.92.87,2.05L22.46,4C21.38,5.12,21,6.82,21.73,7.77s2.19,0.87,3.35-.18l1.56-1.41c1.16-1,1.83-2.46,1.5-3.13s0.67-1.23,2.23-1.23H34c1.56,0,1.8.74,0.52,1.64Z"/><g class="cls-8"><path class="cls-2" d="M22.83,20.18a3.17,3.17,0,0,0,.22-0.37l0-.06,0,0.34Zm-0.44-6A3.73,3.73,0,0,0,19,11.73a3.47,3.47,0,0,0-.6.05,6.23,6.23,0,0,0,1.92-3.67A3,3,0,0,0,23.1,9.85a3.87,3.87,0,0,0,1.07-.15A7.48,7.48,0,0,0,22.4,14.16ZM20,6a10.27,10.27,0,0,0-1.73-2.75h3A5.27,5.27,0,0,0,20,6Zm8.84-.22a4.3,4.3,0,0,0,.8-2.47,4.06,4.06,0,0,1,.73-0.06h2l-2,1.43C29.89,5,29.37,5.36,28.83,5.77Z"/></g><path class="cls-9" d="M40.58,1.23c0.78,0,.8.17,0,0.35l-1.33.31a11.07,11.07,0,0,0-2.61,1l-10.11,6c-0.67.4-.8,0.25-0.28-0.34L29.48,5A2.69,2.69,0,0,0,30,2.59l-0.08-.24a0.93,0.93,0,0,1,1-1.31Z"/><path class="cls-9" d="M18.2,2.22c-0.78,0-1,.56-0.48,1.15l3.83,4.37c0.52,0.59.68,0.48,0.37-.23l-0.43-1a1.66,1.66,0,0,1,.65-2l3.46-2.06c0.67-.4.58-0.69-0.2-0.64Z"/><path class="cls-10" d="M6.14,32.81c1-1.36,2.64-3.5,3.74-4.75l1-1.17a6.21,6.21,0,0,1,5-1.85s5.9,0.85,6.27.85,1-2.42,1-2.42a9.42,9.42,0,0,1,3.23-4.66l0.08-.06c1.37-1,1.23-1.2-.3-0.55l-1.7.72A6.29,6.29,0,0,0,21.1,22c-0.31,1-1.84,1.42-3.41.86l-2-.71a2.38,2.38,0,0,1-1.46-3.47,9.19,9.19,0,0,1,4.24-3.47L26,12.54c1.57-.56,1.51-0.78-0.13-0.49l-8,1.42A9.76,9.76,0,0,0,13,16.32L11.53,18a4.62,4.62,0,0,1-4.18,1.69,9,9,0,0,1-3.86-2.64c-0.89-1.11-1.62-.65-1.62,1v4.69c0,1.66,1,2.08,2.18.93l0.13-.13c1.2-1.15,3-1.5,4-.78S9.13,25.11,8,26.35L6.51,28c-1.12,1.23-2.62,2-3.34,1.59S1.87,30.31,1.87,32v3.83c0,1.66.79,1.92,1.75,0.56Z"/><path class="cls-6" d="M6.14,31.3c1-1.36,2.64-3.5,3.74-4.75l1-1.17a6.21,6.21,0,0,1,5-1.85s5.9,0.85,6.27.85,1-2.42,1-2.42a9.42,9.42,0,0,1,3.23-4.66l0.08-.06c1.37-1,1.23-1.2-.3-0.55l-1.7.72a6.29,6.29,0,0,0-3.34,3.06c-0.31,1-1.84,1.42-3.41.86l-2-.71a2.38,2.38,0,0,1-1.46-3.47,9.19,9.19,0,0,1,4.24-3.47L26,11c1.57-.56,1.51-0.78-0.13-0.49l-8,1.42A9.76,9.76,0,0,0,13,14.81l-1.42,1.68a4.62,4.62,0,0,1-4.18,1.69,9,9,0,0,1-3.86-2.64c-0.89-1.11-1.62-.65-1.62,1v4.69c0,1.66,1,2.08,2.18.93L4.19,22c1.2-1.15,3-1.5,4-.78S9.13,23.6,8,24.83l-1.5,1.66c-1.12,1.23-2.62,2-3.34,1.59s-1.31.71-1.31,2.38v3.83c0,1.66.79,1.92,1.75,0.56Z"/><path class="cls-11" d="M6.14,31.3c1-1.36,2.64-3.5,3.74-4.75l1-1.17a6.21,6.21,0,0,1,5-1.85s5.9,0.85,6.27.85,1-2.42,1-2.42a9.42,9.42,0,0,1,3.23-4.66l0.08-.06c1.37-1,1.23-1.2-.3-0.55l-1.7.72a6.29,6.29,0,0,0-3.34,3.06c-0.31,1-1.84,1.42-3.41.86l-2-.71a2.38,2.38,0,0,1-1.46-3.47,9.19,9.19,0,0,1,4.24-3.47L26,11c1.57-.56,1.51-0.78-0.13-0.49l-8,1.42A9.76,9.76,0,0,0,13,14.81l-1.42,1.68a4.62,4.62,0,0,1-4.18,1.69,9,9,0,0,1-3.86-2.64c-0.89-1.11-1.62-.65-1.62,1v4.69c0,1.66,1,2.08,2.18.93L4.19,22c1.2-1.15,3-1.5,4-.78S9.13,23.6,8,24.83l-1.5,1.66c-1.12,1.23-2.62,2-3.34,1.59s-1.31.71-1.31,2.38v3.83c0,1.66.79,1.92,1.75,0.56Z"/><g class="cls-8"><path class="cls-2" d="M3.38,30.46a4.31,4.31,0,0,1,.06-0.78H3.62a4.65,4.65,0,0,0,2.46-.85c-0.44.57-.84,1.12-1.17,1.58L3.38,32.57V30.46Zm6.88-6.59a4,4,0,0,0,.14-1.53A3.2,3.2,0,0,0,9.09,20a3.3,3.3,0,0,0-.51-0.3,6.73,6.73,0,0,0,3.9-2,3.69,3.69,0,0,0,.18,1.92A4.13,4.13,0,0,0,15,22,8.06,8.06,0,0,0,10.26,23.87Zm10.69-1.16a3.41,3.41,0,0,0,.48-0.28l-0.11.33ZM3.38,17.58A11,11,0,0,0,6.3,19.42a5.69,5.69,0,0,0-2.92,1.32V17.58Z"/></g><path class="cls-9" d="M1.25,41.34c0,0.83.19,0.85,0.37,0L2,40a11.79,11.79,0,0,1,1.11-2.78L9.44,26.42c0.42-.72.26-0.85-0.36-0.3l-3.82,3.4A2.87,2.87,0,0,1,2.69,30L2.43,30A1,1,0,0,0,1,31Z"/><path class="cls-9" d="M2.3,17.51c0-.83.6-1.06,1.23-0.51l4.66,4.08c0.63,0.55.51,0.72-.25,0.39l-1-.45a1.77,1.77,0,0,0-2.16.69l-2.2,3.68C2.11,26.1,1.8,26,1.85,25.17Z"/></g></g></svg>