<svg xmlns="http://www.w3.org/2000/svg" xmlns:xlink="http://www.w3.org/1999/xlink" viewBox="0 0 20 20"><defs><style>.cls-1{isolation:isolate;}.cls-2{fill:#651928;}.cls-3{fill:url(#linear-gradient);}.cls-4{opacity:0.5;mix-blend-mode:darken;fill:url(#linear-gradient-2);}</style><linearGradient id="linear-gradient" x1="10" y1="0.5" x2="10" y2="19.5" gradientUnits="userSpaceOnUse"><stop offset="0" stop-color="#963a4c"/><stop offset="0.41" stop-color="#963a4c" stop-opacity="0.99"/><stop offset="0.56" stop-color="#963a4c" stop-opacity="0.94"/><stop offset="0.67" stop-color="#963a4c" stop-opacity="0.86"/><stop offset="0.76" stop-color="#963a4c" stop-opacity="0.75"/><stop offset="0.83" stop-color="#963a4c" stop-opacity="0.6"/><stop offset="0.9" stop-color="#963a4c" stop-opacity="0.42"/><stop offset="0.95" stop-color="#963a4c" stop-opacity="0.21"/><stop offset="1" stop-color="#963a4c" stop-opacity="0"/></linearGradient><linearGradient id="linear-gradient-2" x1="10" y1="19" x2="10" y2="6" gradientUnits="userSpaceOnUse"><stop offset="0" stop-color="#651928"/><stop offset="1" stop-color="#651928" stop-opacity="0"/></linearGradient></defs><title>Game 1.8 export</title><g class="cls-1"><g id="Layer_14" data-name="Layer 14"><rect class="cls-2" x="1" y="1" width="18" height="18" rx="3" ry="3"/><rect class="cls-3" x="0.5" y="0.5" width="19" height="19" rx="3.5" ry="3.5"/><path class="cls-2" d="M16,1a3,3,0,0,1,3,3V16a3,3,0,0,1-3,3H4a3,3,0,0,1-3-3V4A3,3,0,0,1,4,1H16m0-1H4A4,4,0,0,0,0,4V16a4,4,0,0,0,4,4H16a4,4,0,0,0,4-4V4a4,4,0,0,0-4-4h0Z"/><path class="cls-4" d="M3,13a2.94,2.94,0,0,0,3,3h8a2.76,2.76,0,0,0,3-3V6l2,3v7a3,3,0,0,1-3,3H4a3,3,0,0,1-3-3V9L3,6v7Z"/></g></g></svg>